<?xml version="1.0" encoding="utf-8"?>
<!-- Generator: Adobe Illustrator 22.1.0, SVG Export Plug-In . SVG Version: 6.00 Build 0)  -->
<svg version="1.1" id="Layer_1" xmlns="http://www.w3.org/2000/svg" xmlns:xlink="http://www.w3.org/1999/xlink" x="0px" y="0px"
	 viewBox="0 0 275 233" style="enable-background:new 0 0 275 233;" xml:space="preserve">
<style type="text/css">
	.st0{fill:none;stroke:#4BBFB9;stroke-width:12;stroke-linecap:round;stroke-linejoin:round;}
	.st1{fill:#EDB524;}
	.st2{fill:#DF5949;}
	.st3{fill:#A03532;}
</style>
<path class="st0" d="M42.6,131.2C145,112.2,213.3,25,213.3,25"/>
<polyline class="st0" points="214.2,62.5 213.4,25 175.3,25.5 "/>
<path class="st1" d="M85.3,207H46.4c-5.7,0-10.4-4.7-10.4-10.4v-38.9c0-5.7,4.7-10.4,10.4-10.4h38.9c5.7,0,10.4,4.7,10.4,10.4v38.9
	C95.7,202.3,91.1,207,85.3,207z"/>
<path class="st2" d="M157.4,207h-38.9c-5.7,0-10.4-4.7-10.4-10.4v-58.8c0-5.7,4.7-10.4,10.4-10.4h38.9c5.7,0,10.4,4.7,10.4,10.4
	v58.8C167.8,202.3,163.1,207,157.4,207z"/>
<path class="st3" d="M229.4,207h-38.9c-5.7,0-10.4-4.7-10.4-10.4v-111c0-5.7,4.7-10.4,10.4-10.4h38.9c5.7,0,10.4,4.7,10.4,10.4v111
	C239.8,202.3,235.1,207,229.4,207z"/>
</svg>
